<svg xmlns="http://www.w3.org/2000/svg" width="16" height="16" viewBox="0 0 16 16">
  <g fill="#62f09b" fill-rule="evenodd" transform="scale(.93),translate(0 2.6)">
    <path d="M 17.152 11.84 L 9.808 11.84 L 9.808 10.304 L 12.912 10.304 L 12.912 1.664 L 9.792 3.984 L 9.792 2.112 L 12.464 0.16 L 14.64 0.16 L 14.64 10.304 L 17.152 10.304 L 17.152 11.84 Z M 0 8.544 L 0 3.456 Q 0 2.4 0.44 1.632 Q 0.88 0.864 1.696 0.432 A 3.65 3.65 0 0 1 2.813 0.063 A 4.89 4.89 0 0 1 3.616 0 A 4.875 4.875 0 0 1 4.536 0.083 A 3.541 3.541 0 0 1 5.544 0.432 Q 6.352 0.864 6.792 1.632 Q 7.232 2.4 7.232 3.456 L 7.232 8.544 Q 7.232 9.584 6.784 10.36 Q 6.336 11.136 5.528 11.568 A 3.57 3.57 0 0 1 4.464 11.929 A 4.827 4.827 0 0 1 3.616 12 Q 2.512 12 1.704 11.568 Q 0.896 11.136 0.448 10.36 A 3.32 3.32 0 0 1 0.044 9.168 A 4.312 4.312 0 0 1 0 8.544 Z M 5.584 8.544 L 5.584 3.456 A 2.356 2.356 0 0 0 5.502 2.82 A 1.791 1.791 0 0 0 5.048 2.032 A 1.791 1.791 0 0 0 4.045 1.523 A 2.553 2.553 0 0 0 3.616 1.488 Q 2.72 1.488 2.184 2.032 A 1.836 1.836 0 0 0 1.674 3.084 A 2.561 2.561 0 0 0 1.648 3.456 L 1.648 8.544 A 2.356 2.356 0 0 0 1.73 9.18 A 1.791 1.791 0 0 0 2.184 9.968 A 1.791 1.791 0 0 0 3.187 10.478 A 2.553 2.553 0 0 0 3.616 10.512 Q 4.512 10.512 5.048 9.968 A 1.836 1.836 0 0 0 5.558 8.916 A 2.561 2.561 0 0 0 5.584 8.544 Z M 3.274 6.943 A 1.134 1.134 0 0 0 3.616 6.992 A 1.286 1.286 0 0 0 3.745 6.986 A 0.939 0.939 0 0 0 4.344 6.704 Q 4.624 6.416 4.624 5.952 A 1.296 1.296 0 0 0 4.614 5.79 A 0.943 0.943 0 0 0 4.344 5.224 A 0.918 0.918 0 0 0 3.952 4.99 A 1.168 1.168 0 0 0 3.616 4.944 A 1.296 1.296 0 0 0 3.454 4.954 A 0.943 0.943 0 0 0 2.888 5.224 A 0.918 0.918 0 0 0 2.654 5.616 A 1.168 1.168 0 0 0 2.608 5.952 A 1.354 1.354 0 0 0 2.623 6.16 A 0.974 0.974 0 0 0 2.888 6.704 A 0.913 0.913 0 0 0 3.274 6.943 Z"/>
  </g>
</svg>