<svg width="16" height="16" viewBox="0 0 16 16" xmlns="http://www.w3.org/2000/svg">
<g transform="scale(.81),translate(1.2, 4)" fill="#CED0D6">
  <path d="M 17.344 11.84 L 9.856 11.84 L 9.856 10.08 L 12.896 10.08 L 12.896 1.936 L 9.84 4.208 L 9.84 2.096 L 12.528 0.16 L 14.896 0.16 L 14.896 10.08 L 17.344 10.08 L 17.344 11.84 Z M 0 8.512 L 0 3.488 A 4.139 4.139 0 0 1 0.1 2.558 A 3.246 3.246 0 0 1 0.456 1.648 Q 0.912 0.864 1.744 0.432 A 3.751 3.751 0 0 1 2.839 0.071 A 5.109 5.109 0 0 1 3.712 0 Q 4.854 0 5.673 0.424 A 3.233 3.233 0 0 1 5.688 0.432 Q 6.512 0.864 6.968 1.648 Q 7.424 2.432 7.424 3.488 L 7.424 8.512 A 4.139 4.139 0 0 1 7.324 9.442 A 3.246 3.246 0 0 1 6.968 10.352 Q 6.512 11.136 5.68 11.568 A 3.751 3.751 0 0 1 4.585 11.929 A 5.109 5.109 0 0 1 3.712 12 A 5.023 5.023 0 0 1 2.745 11.911 A 3.708 3.708 0 0 1 1.744 11.568 Q 0.912 11.136 0.456 10.352 Q 0 9.568 0 8.512 Z M 5.536 8.512 L 5.536 3.488 A 2.09 2.09 0 0 0 5.463 2.922 A 1.563 1.563 0 0 0 5.04 2.208 Q 4.544 1.728 3.712 1.728 A 2.336 2.336 0 0 0 3.141 1.794 A 1.644 1.644 0 0 0 2.384 2.208 A 1.601 1.601 0 0 0 1.914 3.142 A 2.266 2.266 0 0 0 1.888 3.488 L 1.888 8.512 A 2.09 2.09 0 0 0 1.961 9.078 A 1.563 1.563 0 0 0 2.384 9.792 Q 2.88 10.272 3.712 10.272 A 2.336 2.336 0 0 0 4.283 10.206 A 1.644 1.644 0 0 0 5.04 9.792 A 1.601 1.601 0 0 0 5.511 8.858 A 2.266 2.266 0 0 0 5.536 8.512 Z M 3.344 6.984 A 1.156 1.156 0 0 0 3.712 7.04 Q 4.192 7.04 4.48 6.736 A 1.01 1.01 0 0 0 4.721 6.313 A 1.307 1.307 0 0 0 4.768 5.952 A 1.375 1.375 0 0 0 4.748 5.711 A 0.964 0.964 0 0 0 4.48 5.184 Q 4.192 4.896 3.712 4.896 A 1.375 1.375 0 0 0 3.471 4.916 A 0.964 0.964 0 0 0 2.944 5.184 Q 2.656 5.472 2.656 5.952 A 1.41 1.41 0 0 0 2.666 6.126 A 1.031 1.031 0 0 0 2.952 6.736 A 0.969 0.969 0 0 0 3.344 6.984 Z" />
</g>
</svg>