<svg width="13" height="13" viewBox="0 0 13 13" xmlns="http://www.w3.org/2000/svg">
  <g transform="scale(.78),translate(0, 2.5)" fill="#CED0D6">
    <path d="M 16.864 11.84 L 9.76 11.84 L 9.76 10.688 L 12.96 10.688 L 12.96 1.232 L 9.792 3.584 L 9.792 2.176 L 12.512 0.16 L 14.224 0.16 L 14.224 10.688 L 16.864 10.688 L 16.864 11.84 Z M 0 8.56 L 0 3.44 Q 0 2.384 0.424 1.616 Q 0.848 0.848 1.632 0.424 Q 2.416 0 3.472 0 Q 4.544 0 5.32 0.424 Q 6.096 0.848 6.52 1.616 A 3.333 3.333 0 0 1 6.879 2.659 A 4.515 4.515 0 0 1 6.944 3.44 L 6.944 8.56 Q 6.944 9.616 6.52 10.384 Q 6.096 11.152 5.312 11.576 Q 4.528 12 3.472 12 Q 2.416 12 1.632 11.576 Q 0.848 11.152 0.424 10.376 A 3.422 3.422 0 0 1 0.051 9.251 A 4.498 4.498 0 0 1 0 8.56 Z M 5.68 8.56 L 5.68 3.44 A 2.931 2.931 0 0 0 5.59 2.696 A 2.135 2.135 0 0 0 5.08 1.76 A 1.991 1.991 0 0 0 3.868 1.147 A 2.818 2.818 0 0 0 3.472 1.12 A 2.568 2.568 0 0 0 2.76 1.214 A 1.941 1.941 0 0 0 1.864 1.76 A 2.177 2.177 0 0 0 1.312 2.885 A 3.088 3.088 0 0 0 1.264 3.44 L 1.264 8.56 A 2.931 2.931 0 0 0 1.354 9.305 A 2.135 2.135 0 0 0 1.864 10.24 A 1.991 1.991 0 0 0 3.076 10.853 A 2.818 2.818 0 0 0 3.472 10.88 A 2.568 2.568 0 0 0 4.184 10.786 A 1.941 1.941 0 0 0 5.08 10.24 A 2.177 2.177 0 0 0 5.632 9.115 A 3.088 3.088 0 0 0 5.68 8.56 Z M 3.472 6.896 Q 3.056 6.896 2.808 6.632 Q 2.56 6.368 2.56 5.952 A 1.13 1.13 0 0 1 2.595 5.664 A 0.814 0.814 0 0 1 2.808 5.288 A 0.83 0.83 0 0 1 3.257 5.059 A 1.192 1.192 0 0 1 3.472 5.04 A 1.13 1.13 0 0 1 3.76 5.075 A 0.814 0.814 0 0 1 4.136 5.288 A 0.83 0.83 0 0 1 4.366 5.737 A 1.192 1.192 0 0 1 4.384 5.952 A 1.14 1.14 0 0 1 4.343 6.265 A 0.879 0.879 0 0 1 4.136 6.632 A 0.823 0.823 0 0 1 3.636 6.885 A 1.164 1.164 0 0 1 3.472 6.896 Z"
          vector-effect="non-scaling-stroke"/>
  </g>
</svg>