<svg width="16" height="16" viewBox="0 0 16 16" xmlns="http://www.w3.org/2000/svg">
<g id="svgGroup" transform="scale(.82),translate(1.4, 3.77)" stroke-linecap="round" fill-rule="evenodd" font-size="6pt"
   stroke="#CED0D6" stroke-width="0.11mm"
   fill="#CED0D6">
  <path d="M 16.736 11.84 L 9.728 11.84 L 9.728 10.88 L 12.976 10.88 L 12.976 1.072 L 9.808 3.424 L 9.808 2.24 L 12.624 0.16 L 14.032 0.16 L 14.032 10.88 L 16.736 10.88 L 16.736 11.84 Z M 0 8.56 L 0 3.44 A 4.714 4.714 0 0 1 0.077 2.564 A 3.38 3.38 0 0 1 0.408 1.6 Q 0.816 0.832 1.584 0.416 A 3.363 3.363 0 0 1 2.598 0.069 A 4.573 4.573 0 0 1 3.408 0 A 4.374 4.374 0 0 1 4.293 0.085 A 3.27 3.27 0 0 1 5.208 0.416 Q 5.968 0.832 6.376 1.6 Q 6.783 2.367 6.784 3.436 A 5.59 5.59 0 0 1 6.784 3.44 L 6.784 8.56 A 4.606 4.606 0 0 1 6.7 9.46 A 3.43 3.43 0 0 1 6.376 10.392 Q 5.968 11.168 5.208 11.584 A 3.318 3.318 0 0 1 4.178 11.937 A 4.473 4.473 0 0 1 3.408 12 A 4.521 4.521 0 0 1 2.539 11.92 A 3.338 3.338 0 0 1 1.584 11.584 Q 0.816 11.168 0.408 10.392 A 3.469 3.469 0 0 1 0.067 9.372 A 4.684 4.684 0 0 1 0 8.56 Z M 5.696 8.56 L 5.696 3.44 A 3.386 3.386 0 0 0 5.617 2.688 Q 5.476 2.067 5.08 1.64 Q 4.464 0.976 3.408 0.976 A 2.79 2.79 0 0 0 2.674 1.068 A 2.021 2.021 0 0 0 1.712 1.64 Q 1.095 2.296 1.088 3.414 A 4.115 4.115 0 0 0 1.088 3.44 L 1.088 8.56 A 3.258 3.258 0 0 0 1.174 9.33 A 2.255 2.255 0 0 0 1.712 10.352 A 2.062 2.062 0 0 0 2.926 10.987 A 2.968 2.968 0 0 0 3.408 11.024 Q 4.464 11.024 5.08 10.36 Q 5.696 9.696 5.696 8.56 Z M 3.099 6.79 A 0.968 0.968 0 0 0 3.392 6.832 Q 3.792 6.832 4.024 6.584 Q 4.256 6.336 4.256 5.952 A 1.138 1.138 0 0 0 4.232 5.713 A 0.771 0.771 0 0 0 4.024 5.32 A 0.764 0.764 0 0 0 3.658 5.118 A 1.114 1.114 0 0 0 3.392 5.088 A 1.129 1.129 0 0 0 3.23 5.099 A 0.814 0.814 0 0 0 2.768 5.32 A 0.757 0.757 0 0 0 2.559 5.686 A 1.078 1.078 0 0 0 2.528 5.952 A 1.139 1.139 0 0 0 2.533 6.063 A 0.844 0.844 0 0 0 2.768 6.584 A 0.782 0.782 0 0 0 3.099 6.79 Z"
        vector-effect="non-scaling-stroke"/>
</g>
</svg>