<svg width="13" height="13" viewBox="0 0 13 13" xmlns="http://www.w3.org/2000/svg">
  <g transform="scale(.93),translate(0, 2.2)" font-size="8pt" style="fill:#6E6E6E">
    <path d="M 13.936 9.62 L 7.969 9.62 L 7.969 8.372 L 10.491 8.372 L 10.491 1.352 L 7.956 3.237 L 7.956 1.716 L 10.127 0.13 L 11.895 0.13 L 11.895 8.372 L 13.936 8.372 L 13.936 9.62 Z M 0 6.942 L 0 2.808 A 3.46 3.46 0 0 1 0.073 2.079 A 2.608 2.608 0 0 1 0.358 1.326 Q 0.715 0.702 1.378 0.351 A 2.966 2.966 0 0 1 2.286 0.051 A 3.973 3.973 0 0 1 2.938 0 A 3.961 3.961 0 0 1 3.686 0.067 A 2.877 2.877 0 0 1 4.505 0.351 Q 5.161 0.702 5.519 1.326 A 2.652 2.652 0 0 1 5.826 2.197 A 3.559 3.559 0 0 1 5.876 2.808 L 5.876 6.942 Q 5.876 7.787 5.512 8.418 Q 5.148 9.048 4.492 9.399 A 2.901 2.901 0 0 1 3.627 9.692 A 3.922 3.922 0 0 1 2.938 9.75 A 3.856 3.856 0 0 1 2.175 9.678 A 2.869 2.869 0 0 1 1.385 9.399 Q 0.728 9.048 0.364 8.418 A 2.697 2.697 0 0 1 0.036 7.449 A 3.504 3.504 0 0 1 0 6.942 Z M 4.537 6.942 L 4.537 2.808 Q 4.537 2.093 4.102 1.651 A 1.455 1.455 0 0 0 3.286 1.237 A 2.075 2.075 0 0 0 2.938 1.209 A 1.945 1.945 0 0 0 2.433 1.271 A 1.424 1.424 0 0 0 1.775 1.651 A 1.492 1.492 0 0 0 1.36 2.506 A 2.081 2.081 0 0 0 1.339 2.808 L 1.339 6.942 Q 1.339 7.657 1.775 8.099 A 1.455 1.455 0 0 0 2.59 8.513 A 2.075 2.075 0 0 0 2.938 8.541 A 1.945 1.945 0 0 0 3.443 8.479 A 1.424 1.424 0 0 0 4.102 8.099 A 1.492 1.492 0 0 0 4.516 7.244 A 2.081 2.081 0 0 0 4.537 6.942 Z M 2.66 5.641 A 0.921 0.921 0 0 0 2.938 5.681 A 1.045 1.045 0 0 0 3.043 5.676 A 0.763 0.763 0 0 0 3.53 5.447 A 0.773 0.773 0 0 0 3.722 5.109 A 1.02 1.02 0 0 0 3.757 4.836 A 1.053 1.053 0 0 0 3.749 4.704 A 0.766 0.766 0 0 0 3.53 4.245 A 0.746 0.746 0 0 0 3.211 4.055 A 0.949 0.949 0 0 0 2.938 4.017 A 1.053 1.053 0 0 0 2.806 4.025 A 0.766 0.766 0 0 0 2.347 4.245 A 0.746 0.746 0 0 0 2.157 4.563 A 0.949 0.949 0 0 0 2.119 4.836 A 1.1 1.1 0 0 0 2.132 5.005 A 0.791 0.791 0 0 0 2.347 5.447 A 0.742 0.742 0 0 0 2.66 5.641 Z" />
  </g>
</svg>